<svg width="913" height="913" viewBox="0 0 913 913" fill="none" xmlns="http://www.w3.org/2000/svg">
<path d="M686.004 251.166C689.768 252.377 693.065 251.833 696.89 251.246C698.024 251.089 698.024 251.089 699.182 250.929C703.521 250.313 707.817 249.555 712.117 248.708C722.084 246.863 730.945 247.051 740.034 252.047C747.195 257.231 751.924 263.733 756.798 271.015C757.904 272.636 757.904 272.636 759.032 274.289C760.537 276.499 762.038 278.711 763.534 280.927C766.083 284.701 768.658 288.456 771.236 292.211C772.943 294.699 774.645 297.19 776.346 299.683C779.415 304.181 782.497 308.671 785.583 313.157C786.06 313.851 786.537 314.544 787.029 315.259C787.983 316.646 788.937 318.033 789.892 319.42C792.824 323.681 795.753 327.944 798.683 332.206C801.077 335.689 803.472 339.171 805.87 342.652C808.863 346.999 811.85 351.349 814.836 355.7C815.47 356.625 816.105 357.549 816.759 358.501C821.485 365.388 826.19 372.288 830.865 379.21C831.657 380.382 831.657 380.382 832.464 381.578C843.909 398.626 843.909 398.626 843.688 409.13C862.631 402.884 862.631 402.884 875.741 388.543C877.18 386.057 878.499 384.739 881.089 383.484C886.282 382.54 889.726 384.106 893.953 386.957C900.65 392.933 904.184 401.658 904.865 410.441C905.171 419.377 904.435 426.122 898.987 433.34C895.905 436.493 892.935 437.328 888.702 437.581C882.97 437.28 879.019 435.248 874.677 431.571C873.906 430.557 873.134 429.543 872.339 428.498C867.218 424.629 861.532 426.491 855.442 427.296C853.017 427.509 850.59 427.71 848.163 427.897C846.315 428.053 844.467 428.208 842.619 428.365C842.972 429.07 843.324 429.775 843.688 430.502C843.766 441.398 842.13 452.321 840.682 463.094C840.519 464.381 840.355 465.668 840.187 466.994C838.874 476.323 836.93 483.857 830.063 490.61C829.408 491.277 828.752 491.944 828.076 492.631C821.795 497.516 814.739 499.758 807.093 501.588C806.136 501.826 805.179 502.064 804.193 502.309C801.023 503.094 797.849 503.865 794.674 504.636C792.414 505.192 790.154 505.75 787.894 506.308C781.807 507.809 775.718 509.297 769.628 510.783C763.197 512.354 756.77 513.938 750.342 515.519C735.156 519.253 719.964 522.968 704.771 526.675C703.739 526.927 702.708 527.179 701.645 527.438C686.93 531.029 672.213 534.615 657.493 538.192C614.79 548.572 572.144 559.187 529.493 569.781C528.003 570.151 526.514 570.521 525.024 570.891C523.924 571.164 523.924 571.164 522.802 571.442C519.869 572.171 516.936 572.899 514.003 573.628C511.828 574.168 509.653 574.708 507.477 575.249C484.415 580.977 461.347 586.68 438.272 592.357C414.001 598.329 389.742 604.352 365.496 610.428C316.892 622.605 268.246 634.613 219.604 646.64C216.581 647.387 213.557 648.135 210.533 648.883C200.873 651.273 191.213 653.66 181.551 656.042C178.888 656.698 176.225 657.355 173.563 658.014C124.229 670.205 124.229 670.205 110.191 662.132C99.4172 654.792 94.1027 643.453 88.2596 632.132C87.7387 631.129 87.2179 630.126 86.6812 629.092C79.4917 615.206 72.4048 601.267 65.2955 587.34C57.899 572.852 50.449 558.395 42.9404 543.965C41.0341 540.296 39.1332 536.625 37.2343 532.953C36.8993 532.306 36.5644 531.658 36.2192 530.991C34.5329 527.729 32.8478 524.467 31.1642 521.205C28.1111 515.291 25.0491 509.382 21.9482 503.493C20.5594 500.855 19.1753 498.214 17.7914 495.574C16.825 493.735 15.8513 491.9 14.8773 490.066C10.3963 481.509 7.47716 474.934 8.18192 465.098C8.23384 464.3 8.28575 463.503 8.33924 462.681C8.95883 454.417 9.98595 446.198 11.0538 437.982C11.2172 436.67 11.3806 435.358 11.5489 434.006C13.2022 421.978 16.0115 412.162 25.1458 403.787C34.8798 396.779 47.7616 394.885 59.2615 392.316C61.6123 391.785 63.963 391.253 66.3138 390.722C69.9521 389.9 73.5914 389.089 77.2379 388.304C80.8034 387.533 84.3581 386.723 87.9131 385.905C88.9941 385.682 90.0751 385.459 91.1889 385.229C98.1534 383.582 101.777 381.191 106.573 375.918C112.808 369.268 121.163 368.051 129.718 366.148C131.114 365.829 132.51 365.508 133.905 365.186C136.924 364.493 139.944 363.807 142.966 363.127C147.883 362.021 152.796 360.898 157.708 359.772C164.762 358.159 171.819 356.553 178.876 354.953C189.405 352.566 199.93 350.164 210.455 347.757C211.319 347.559 212.183 347.362 213.073 347.158C217.503 346.145 221.933 345.131 226.363 344.118C230.005 343.284 233.647 342.452 237.289 341.62C285.503 330.603 333.66 319.347 381.819 308.098C392.254 305.661 402.689 303.225 413.124 300.789C414.113 300.558 415.101 300.328 416.119 300.09C423.02 298.479 429.92 296.869 436.821 295.258C437.787 295.033 438.753 294.807 439.748 294.575C576.534 262.652 576.534 262.652 627.164 251.112C628.419 250.826 629.675 250.54 630.968 250.245C634.383 249.467 637.799 248.69 641.215 247.915C642.183 247.694 643.151 247.474 644.149 247.247C658.817 243.926 672.04 244.431 686.004 251.166Z" fill="black"/>
<path d="M679.058 268.543C687.569 275.665 693.354 285.5 699.514 294.616C703.683 300.762 708.073 306.622 712.664 312.46C716.862 317.917 720.654 323.672 724.483 329.391C726.988 333.112 729.474 336.7 732.433 340.077C734.691 342.877 734.691 342.877 734.691 346.083C641.161 367.942 641.161 367.942 603.922 376.538C602.595 376.844 601.268 377.151 599.901 377.467C582.613 381.455 565.317 385.409 548.017 389.345C544.793 390.079 541.568 390.814 538.344 391.548C536.174 392.042 534.004 392.536 531.834 393.03C530.755 393.276 529.676 393.522 528.565 393.775C523.315 394.97 518.066 396.163 512.815 397.354C490.304 402.457 467.824 407.664 445.387 413.083C424.84 418.045 404.266 422.88 383.671 427.639C382.945 427.806 382.219 427.974 381.471 428.147C372.476 430.225 363.479 432.3 354.483 434.374C340.274 437.65 326.066 440.935 311.859 444.218C309.515 444.76 307.17 445.301 304.826 445.843C279.196 451.764 253.573 457.713 227.96 463.707C225.48 464.287 223.001 464.867 220.521 465.447C216.721 466.336 212.921 467.226 209.121 468.116C207.061 468.599 205.001 469.08 202.941 469.562C196.977 470.958 191.018 472.373 185.072 473.846C184.035 474.1 182.998 474.355 181.93 474.617C180.061 475.078 178.193 475.546 176.328 476.023C164.911 478.83 164.911 478.83 159.848 476.608C153.694 471.195 150.117 464.263 146.231 457.15C145.481 455.805 144.731 454.46 143.978 453.117C142.469 450.418 140.967 447.715 139.471 445.009C136.527 439.695 133.496 434.432 130.469 429.166C129.451 427.38 128.434 425.594 127.418 423.807C125.501 420.442 123.56 417.094 121.599 413.755C120.704 412.214 119.809 410.672 118.915 409.13C118.505 408.445 118.095 407.76 117.673 407.055C113.891 400.489 113.891 400.489 114.908 396.307C119.532 392.729 124.602 391.946 130.203 390.869C131.195 390.669 132.186 390.469 133.208 390.263C135.357 389.829 137.508 389.4 139.659 388.974C145.497 387.815 151.328 386.617 157.158 385.418C158.36 385.17 159.563 384.923 160.802 384.668C172.768 382.191 184.671 379.47 196.563 376.663C197.598 376.419 198.632 376.176 199.698 375.924C206.155 374.4 212.61 372.866 219.064 371.329C224.913 369.938 230.765 368.555 236.617 367.172C245.168 365.149 253.719 363.125 262.27 361.097C284.432 355.843 306.603 350.625 328.774 345.411C334.455 344.075 340.136 342.738 345.817 341.402C387.626 331.563 429.445 321.77 471.267 311.991C488.29 308.011 505.312 304.026 522.334 300.039C532.935 297.556 543.536 295.075 554.139 292.599C558.242 291.64 562.344 290.682 566.446 289.723C567.45 289.489 568.453 289.255 569.487 289.013C582.365 286.004 595.237 282.97 608.103 279.911C614.557 278.376 621.012 276.85 627.469 275.326C632.565 274.123 637.659 272.908 642.75 271.684C645.838 270.944 648.929 270.216 652.02 269.491C654.103 268.999 656.182 268.493 658.262 267.987C666.02 266.182 671.695 264.94 679.058 268.543Z" fill="#FCD34D"/>
<path d="M830.864 420.646C830.864 420.646 827.642 444.891 827.077 449.947C826.887 451.665 826.701 453.383 826.52 455.102C826.259 457.581 825.981 460.058 825.7 462.534C825.623 463.296 825.546 464.058 825.467 464.842C824.567 472.514 822.063 477.697 816.065 482.506C811.603 485.273 806.675 486.315 801.611 487.525C800.403 487.832 799.195 488.139 797.95 488.455C793.966 489.461 789.975 490.436 785.983 491.412C783.211 492.106 780.439 492.802 777.668 493.5C769.486 495.556 761.293 497.57 753.099 499.577C750.67 500.173 748.241 500.769 745.812 501.366C725.003 506.481 704.182 511.541 683.341 516.521C660.681 521.935 638.043 527.435 615.409 532.953C614.457 533.185 613.505 533.417 612.524 533.656C587.03 539.871 561.555 546.15 536.107 552.55C517.285 557.282 498.434 561.879 479.564 566.413C461.603 570.73 443.651 575.075 425.734 579.57C424.796 579.806 423.859 580.041 422.894 580.283C416.048 582.001 409.203 583.724 402.358 585.448C393.232 587.745 384.104 590.039 374.975 592.327C373.76 592.631 372.545 592.936 371.293 593.25C345.413 599.731 319.492 606.037 293.568 612.339C269.895 618.095 246.241 623.916 222.614 629.86C202.157 635.005 181.696 640.142 161.178 645.042C159.046 645.553 156.916 646.068 154.787 646.589C128.311 653.053 128.311 653.053 120.572 649.194C117.093 646.693 115.735 644.048 114.907 639.946C114.793 635.608 115.383 631.415 115.975 627.123C116.101 626.206 116.226 625.29 116.355 624.346C117.256 617.785 116.355 588.95 116.355 588.95C335.749 536.656 830.864 420.646 830.864 420.646Z" fill="#E7CFFF"/>
<path d="M763.351 367.154C764.929 367.759 764.929 367.759 766.54 368.376C769.866 369.655 773.183 370.959 776.5 372.263C778.767 373.14 781.035 374.015 783.304 374.889C788.835 377.023 794.358 379.176 799.875 381.346C796.985 383.273 795.575 383.906 792.326 384.636C791.446 384.837 790.565 385.038 789.658 385.245C788.699 385.457 787.74 385.669 786.751 385.888C785.744 386.116 784.737 386.345 783.699 386.58C781.515 387.074 779.33 387.566 777.145 388.054C773.638 388.839 770.134 389.632 766.63 390.427C761.821 391.518 757.012 392.606 752.202 393.692C742.774 395.825 733.354 397.992 723.938 400.18C723.042 400.388 722.145 400.597 721.222 400.811C700.291 405.678 679.398 410.707 658.502 415.722C635.567 421.226 612.623 426.687 589.665 432.095C557.029 439.784 524.405 447.518 491.787 455.28C490.592 455.564 489.397 455.848 488.165 456.141C451.653 464.831 415.16 473.601 378.684 482.441C346.557 490.227 314.412 497.93 282.254 505.588C258.782 511.179 235.316 516.794 211.867 522.484C201.519 524.995 191.169 527.498 180.818 529.999C178.117 530.652 175.416 531.305 172.715 531.958C164.32 533.988 155.923 536.008 147.523 538.015C144.904 538.641 142.287 539.271 139.671 539.904C136.1 540.768 132.527 541.62 128.953 542.47C127.366 542.858 127.366 542.858 125.746 543.253C124.781 543.48 123.815 543.707 122.821 543.941C121.565 544.243 121.565 544.243 120.284 544.55C118.113 544.841 118.113 544.841 114.907 543.772C115.336 543.369 115.764 542.965 116.205 542.549C119.976 538.898 123.392 535.123 126.662 531.016C130.984 525.66 135.537 520.565 140.22 515.521C140.892 514.788 141.565 514.055 142.259 513.299C142.912 512.601 143.566 511.903 144.239 511.184C144.816 510.565 145.393 509.946 145.987 509.308C151.866 503.942 157.531 501.977 165.139 500.046C166.175 499.774 167.211 499.502 168.278 499.221C179.258 496.36 190.291 493.712 201.334 491.102C203.568 490.571 205.802 490.04 208.036 489.508C212.809 488.372 217.583 487.239 222.358 486.108C230.011 484.294 237.664 482.474 245.316 480.654C246.623 480.343 247.93 480.032 249.277 479.712C251.951 479.076 254.624 478.44 257.298 477.804C261.385 476.832 265.471 475.861 269.558 474.889C296.688 468.44 323.806 461.946 350.924 455.449C420.323 438.822 489.746 422.3 559.217 405.975C582.94 400.4 606.658 394.804 630.37 389.178C636.269 387.779 642.169 386.382 648.069 384.986C649.292 384.697 649.292 384.697 650.541 384.402C653.794 383.632 657.047 382.863 660.3 382.094C669.844 379.836 679.385 377.57 688.924 375.288C694.976 373.841 701.031 372.402 707.087 370.968C710.577 370.142 714.064 369.311 717.55 368.471C721.327 367.562 725.107 366.668 728.889 365.777C729.978 365.51 731.067 365.244 732.189 364.97C743.842 362.259 752.227 362.719 763.351 367.154Z" fill="#FC9F00"/>
<path d="M822.316 393.101C825.455 395.238 825.455 395.238 827.659 397.375C827.458 399.846 827.458 399.846 826.59 402.718C821.973 406.283 816.711 407.27 811.145 408.562C810.109 408.81 809.072 409.058 808.004 409.314C804.495 410.152 800.983 410.977 797.471 411.801C794.943 412.401 792.416 413.002 789.889 413.604C781.923 415.497 773.953 417.372 765.982 419.243C763.474 419.831 760.967 420.42 758.46 421.01C727.019 428.396 727.019 428.396 712.128 431.872C689.41 437.175 666.716 442.568 644.035 448.022C628.557 451.745 613.074 455.447 597.586 459.128C596.52 459.381 595.455 459.634 594.358 459.895C587.812 461.451 581.266 463.005 574.72 464.559C570.052 465.668 565.385 466.776 560.718 467.885C534.296 474.162 507.872 480.428 481.445 486.681C434.408 497.81 387.39 509.017 340.38 520.263C339.28 520.526 338.18 520.789 337.046 521.061C268.214 537.499 268.214 537.499 199.46 554.258C198.28 554.549 197.1 554.839 195.885 555.139C194.734 555.423 193.583 555.707 192.397 555.999C177.636 559.638 162.872 563.264 148.092 566.827C145.957 567.343 143.822 567.86 141.687 568.38C138.795 569.084 135.901 569.78 133.007 570.474C132.175 570.678 131.343 570.882 130.486 571.093C126.433 572.056 122.372 572.877 118.251 573.493C117.482 573.61 116.712 573.727 115.92 573.848C113.839 573.693 113.839 573.693 111.985 572.303C109.917 569.526 110.213 567.432 110.633 564.075C113.274 560.201 117.421 559.665 121.728 558.657C122.944 558.357 122.944 558.357 124.185 558.052C126.91 557.384 129.639 556.733 132.368 556.082C134.321 555.607 136.274 555.131 138.227 554.654C143.557 553.356 148.89 552.073 154.224 550.792C159.881 549.431 165.536 548.057 171.19 546.685C183.151 543.785 195.116 540.903 207.082 538.025C214.102 536.337 221.121 534.645 228.14 532.952C275.223 521.6 322.329 510.35 369.458 499.188C392.523 493.725 415.565 488.181 438.574 482.482C483.742 471.308 529.045 460.678 574.311 449.909C583.879 447.633 593.446 445.352 603.012 443.07C617.521 439.609 632.033 436.156 646.546 432.709C649.982 431.893 653.418 431.076 656.854 430.26C671.712 426.729 686.571 423.203 701.431 419.682C703.039 419.301 703.039 419.301 704.68 418.912C734.671 411.807 764.678 404.786 794.745 398.007C796.469 397.618 796.469 397.618 798.228 397.221C800.324 396.748 802.42 396.277 804.517 395.808C805.87 395.503 805.87 395.503 807.251 395.193C808.414 394.932 808.414 394.932 809.601 394.667C817.632 392.697 817.632 392.697 822.316 393.101Z" fill="#E7CFFF"/>
<path d="M88.1928 401.65C87.8401 402.73 87.4875 403.81 87.1242 404.922C85.5407 410.69 85.1226 415.344 87.9924 420.751C91.2105 426.111 94.6921 431.315 98.1161 436.546C103.365 444.612 108.303 452.858 113.214 461.133C116.358 466.427 119.525 471.691 122.855 476.869C123.411 477.742 123.967 478.614 124.54 479.513C125.567 481.118 126.608 482.714 127.666 484.299C128.117 485.008 128.568 485.718 129.033 486.449C129.429 487.051 129.825 487.653 130.233 488.273C131.304 491.424 130.712 493.565 129.868 496.755C128.249 499.762 128.249 499.762 126.165 502.857C125.403 504.004 124.641 505.151 123.855 506.333C123.032 507.548 122.209 508.763 121.386 509.978C120.138 511.844 118.893 513.713 117.649 515.581C116.825 516.819 116 518.056 115.173 519.292C111.311 525.083 107.641 530.984 104.082 536.966C103.115 538.557 102.074 540.103 101.016 541.636C100.311 541.636 99.6054 541.636 98.8787 541.636C98.525 540.949 98.1714 540.263 97.807 539.556C90.9863 526.34 84.0869 513.179 76.9214 500.146C72.5476 492.169 68.3372 484.114 64.1539 476.036C60.463 468.93 56.657 461.894 52.7957 454.879C50.6936 451.033 48.6022 447.181 46.5177 443.325C45.7173 441.849 45.7173 441.849 44.9007 440.343C43.3466 437.452 41.8224 434.548 40.3065 431.637C39.8373 430.771 39.3681 429.905 38.8846 429.013C36.108 423.592 35.3573 420.416 36.9003 414.473C42.9029 412.1 48.808 410.305 55.0915 408.85C56.4177 408.537 56.4177 408.537 57.7707 408.217C59.6217 407.781 61.4733 407.347 63.3256 406.916C66.1688 406.255 69.0099 405.584 71.8508 404.912C73.6554 404.488 75.46 404.064 77.2648 403.641C78.1151 403.441 78.9655 403.24 79.8416 403.034C85.8066 401.65 85.8066 401.65 88.1928 401.65Z" fill="#FCD34D"/>
<path d="M731.819 265.271C739.334 272.611 745.226 281.423 751.054 290.116C752.462 292.197 753.87 294.279 755.278 296.36C755.959 297.37 756.64 298.38 757.342 299.42C759.948 303.277 762.575 307.118 765.213 310.953C765.902 311.957 765.902 311.957 766.606 312.98C771.172 319.608 775.797 326.195 780.417 332.784C788.455 344.253 796.448 355.757 804.15 367.455C803.092 367.984 803.092 367.984 802.012 368.524C799.344 367.406 796.809 366.221 794.232 364.917C793.454 364.53 792.676 364.143 791.874 363.745C790.219 362.919 788.566 362.088 786.915 361.254C784.426 359.998 781.929 358.76 779.43 357.525C762.209 348.935 750.206 339.895 739.366 323.843C737.854 321.635 736.34 319.429 734.825 317.223C734.079 316.136 733.334 315.049 732.566 313.928C729.554 309.572 726.456 305.282 723.337 301.002C718.255 294.003 713.224 286.969 708.243 279.897C707.592 278.979 706.941 278.061 706.271 277.114C705.371 275.833 705.371 275.833 704.453 274.525C703.92 273.769 703.388 273.013 702.839 272.234C701.565 270.213 701.565 270.213 700.496 267.007C721.855 261.135 721.855 261.135 731.819 265.271Z" fill="#FC9F00"/>
<path d="M203.601 589.722C203.695 593.662 203.751 597.602 203.801 601.543C203.828 602.653 203.855 603.762 203.883 604.906C203.944 611.308 203.96 616.335 200.395 621.78C197.734 623.306 195.791 624.134 192.915 624.986C192.05 625.267 191.184 625.549 190.292 625.839C187.394 626.761 184.483 627.615 181.561 628.458C180.569 628.759 179.578 629.059 178.556 629.368C177.594 629.647 176.633 629.925 175.642 630.212C174.345 630.592 174.345 630.592 173.022 630.981C170.109 631.457 167.97 631.064 165.132 630.329C163.669 625.94 163.824 621.835 163.796 617.238C163.774 616.347 163.752 615.456 163.729 614.538C163.692 608.64 164.355 604.511 167.269 599.339C172.216 594.891 178.567 593.854 184.834 592.126C186.044 591.775 187.254 591.424 188.501 591.062C189.67 590.735 190.838 590.409 192.043 590.073C193.639 589.625 193.639 589.625 195.267 589.168C198.415 588.626 200.541 588.887 203.601 589.722Z" fill="black"/>
<path d="M253.824 576.9C256.742 582.735 254.912 591.791 254.559 598.138C254.466 599.82 254.466 599.82 254.371 601.536C253.735 605.196 252.983 607.149 250.618 610.026C244.861 613.126 238.643 614.558 232.318 616.104C231.378 616.344 230.437 616.584 229.467 616.832C228.098 617.172 228.098 617.172 226.7 617.519C225.88 617.722 225.06 617.926 224.216 618.135C221.555 618.613 219.121 618.722 216.423 618.575C213.796 615.947 215.105 609.078 215.087 605.551C215.054 603.881 215.054 603.881 215.021 602.176C214.966 591.416 214.966 591.416 218.56 586.517C223.295 582.557 229.738 581.464 235.591 579.905C236.634 579.614 237.678 579.322 238.753 579.022C243.876 577.636 248.464 576.492 253.824 576.9Z" fill="black"/>
<path d="M302.981 565.144C305.467 567.63 304.299 573.632 304.317 576.966C304.339 577.96 304.361 578.953 304.383 579.977C304.42 586.467 303.826 591.386 300.844 597.202C295.464 601.019 289.512 602.261 283.212 603.881C282.109 604.181 281.005 604.481 279.868 604.791C278.267 605.208 278.267 605.208 276.633 605.634C275.182 606.015 275.182 606.015 273.701 606.403C270.644 606.861 268.524 606.668 265.58 605.751C262.674 599.939 264.412 590.884 264.779 584.513C264.828 583.612 264.878 582.711 264.929 581.783C265.843 577.928 266.807 575.177 269.855 572.625C274.34 570.734 278.954 569.616 283.679 568.484C284.941 568.156 286.202 567.828 287.501 567.49C298.045 564.817 298.045 564.817 302.981 565.144Z" fill="black"/>
<path d="M353.203 554.458C355.059 558.17 354.161 562.346 353.938 566.413C353.9 567.309 353.862 568.205 353.823 569.129C353.544 574.454 353.123 579.397 351.066 584.379C345.681 588.191 339.735 589.437 333.434 591.058C332.331 591.358 331.227 591.658 330.091 591.968C328.489 592.385 328.489 592.385 326.856 592.811C325.404 593.192 325.404 593.192 323.923 593.58C320.886 594.035 318.744 593.762 315.802 592.928C314.734 591.859 314.734 591.859 314.592 589.167C314.601 585.432 314.649 581.701 314.734 577.967C314.752 576.784 314.77 575.601 314.788 574.382C314.836 573.273 314.884 572.164 314.934 571.022C314.971 570.019 315.008 569.016 315.047 567.983C316.16 563.8 317.666 562.408 321.145 559.801C325.114 558.232 329.158 557.202 333.301 556.195C334.929 555.759 334.929 555.759 336.59 555.314C342.496 553.818 347.267 552.807 353.203 554.458Z" fill="black"/>
<path d="M402.359 542.704C404.094 544.439 403.61 546.316 403.627 548.715C403.573 553.872 403.174 558.958 402.559 564.076C402.398 565.42 402.237 566.765 402.07 568.15C401.243 571.761 400.886 572.548 398.084 574.762C395.566 575.714 395.566 575.714 392.62 576.477C391.551 576.756 390.481 577.035 389.379 577.323C388.262 577.601 387.146 577.88 385.996 578.168C384.892 578.459 383.788 578.75 382.65 579.051C377.344 580.409 372.614 581.529 367.095 581.173C364.53 578.894 363.963 577.443 363.501 574.052C363.795 556.93 363.795 556.93 367.963 550.318C373.292 546.765 379.105 545.366 385.261 543.772C386.178 543.516 387.096 543.26 388.041 542.996C393.209 541.664 397.14 541.508 402.359 542.704Z" fill="black"/>
<path d="M451.514 529.881C453.652 532.018 453.652 532.018 453.935 534.309C453.818 554.356 453.818 554.356 449.523 560.523C444.69 564.105 439.678 565.176 433.883 566.547C432.779 566.828 431.676 567.11 430.539 567.4C420.835 569.811 420.835 569.811 416.251 569.419C413.284 566.452 413.805 564.399 413.769 560.346C413.773 559.439 413.776 558.532 413.78 557.597C413.763 556.719 413.745 555.841 413.728 554.936C413.723 548.779 414.24 542.817 417.319 537.361C420.183 535.599 420.183 535.599 423.597 534.823C424.83 534.523 426.063 534.222 427.333 533.913C428.613 533.64 429.893 533.367 431.211 533.086C432.458 532.77 433.704 532.453 434.989 532.126C440.573 530.729 445.721 529.452 451.514 529.881Z" fill="black"/>
<path d="M500.669 518.127C502.806 520.264 502.806 520.264 503.09 522.284C502.957 542.302 502.957 542.302 499.17 548.273C494.784 551.294 489.958 552.344 484.84 553.658C483.801 553.944 482.762 554.231 481.691 554.526C476.179 555.989 471.11 557.297 465.405 556.596C460.787 549.669 463.088 539.121 464.312 531.184C466.332 526.803 469.737 524.308 474.106 522.547C476.666 521.754 479.229 521.089 481.835 520.464C482.703 520.234 483.57 520.003 484.465 519.765C489.996 518.369 494.964 517.703 500.669 518.127Z" fill="black"/>
<path d="M600.048 494.618C601.803 496.372 601.3 498.345 601.317 500.762C601.088 518.305 601.088 518.305 596.989 524.192C592.156 527.773 587.143 528.844 581.348 530.215C580.245 530.497 579.141 530.779 578.005 531.069C567.954 533.565 567.954 533.565 563.716 533.087C559.186 526.292 561.594 516.736 562.936 509.052C563.868 505.853 564.861 503.664 566.922 501.029C569.973 499.648 569.973 499.648 573.534 498.692C574.779 498.352 576.024 498.011 577.307 497.661C578.465 497.362 579.622 497.063 580.814 496.755C581.618 496.511 582.423 496.267 583.252 496.016C588.783 494.395 594.328 494.138 600.048 494.618Z" fill="black"/>
<path d="M550.893 506.372C552.816 508.295 552.147 511.126 552.162 513.719C551.982 530.137 551.982 530.137 547.792 535.867C543.165 539.449 538.473 540.606 532.861 542.037C531.826 542.327 530.792 542.618 529.726 542.917C523.922 544.457 519.342 545.383 513.492 543.773C510.059 536.907 512.452 525.159 514.561 518.127C517.509 513.399 520.066 511.913 525.381 510.446C526.609 510.106 527.838 509.766 529.104 509.415C536.416 507.587 543.319 505.889 550.893 506.372Z" fill="black"/>
<path d="M650.272 482.863C651.155 504.973 651.155 504.973 645.751 512.47C643.135 514.382 640.558 515.092 637.449 515.989C636.214 516.346 634.98 516.702 633.709 517.07C631.857 517.593 631.857 517.593 629.968 518.126C628.866 518.464 627.764 518.801 626.629 519.149C625.615 519.45 624.601 519.752 623.557 520.063C622.653 520.334 621.75 520.606 620.819 520.885C617.788 521.405 615.789 521.224 612.871 520.263C608.654 513.938 610.588 506.164 612.003 499.025C612.795 495.18 613.435 493.037 616.081 490.117C620.441 487.514 624.785 486.423 629.701 485.267C630.616 485.031 631.531 484.796 632.473 484.553C638.553 483.07 644.018 482.635 650.272 482.863Z" fill="black"/>
<path d="M746.446 459.353C748.364 461.272 747.744 464.041 747.781 466.633C747.705 474.308 747.612 483.41 742.288 489.416C737.354 492.379 732.165 493.573 726.61 494.951C725.498 495.246 724.385 495.542 723.239 495.846C713.732 498.273 713.732 498.273 710.113 496.754C706.264 490.98 708.038 484.468 709.245 477.92C709.481 476.562 709.716 475.204 709.959 473.804C711.441 469.241 712.644 467.528 716.525 464.696C720.152 463.329 723.825 462.493 727.612 461.691C729.087 461.345 729.087 461.345 730.592 460.992C735.977 459.78 740.926 458.974 746.446 459.353Z" fill="black"/>
<path d="M698.359 471.109C699.428 472.177 699.428 472.177 699.582 475.93C699.519 480.76 698.868 485.394 698.025 490.143C697.899 490.944 697.773 491.745 697.643 492.57C696.908 496.791 696.419 499.431 693.016 502.098C690.613 503.05 690.613 503.05 687.824 503.813C686.299 504.232 686.299 504.232 684.743 504.659C683.682 504.938 682.622 505.216 681.529 505.504C680.485 505.795 679.441 506.087 678.365 506.387C672.831 507.875 667.761 509.222 662.027 508.509C657.81 502.184 659.744 494.41 661.159 487.271C661.951 483.429 662.592 481.283 665.233 478.363C669.613 475.751 673.987 474.668 678.924 473.513C680.31 473.16 680.31 473.16 681.723 472.799C687.407 471.418 692.511 470.762 698.359 471.109Z" fill="black"/>
<path d="M100.414 459.02C104.223 462.457 106.044 464.947 106.892 470.04C106.175 474.342 104.308 475.845 101.015 478.589C97.0696 480.562 92.5074 480.029 88.192 479.657C83.7367 478.007 80.3736 476.001 77.5061 472.177C76.4375 468.504 76.4375 468.504 76.4375 464.697C78.2662 461.532 79.8861 459.864 82.9826 457.952C89.1626 456.474 94.6438 456.188 100.414 459.02Z" fill="black"/>
<path d="M754.994 310.82C760.319 313.094 764.867 316.466 767.817 321.506C768.418 324.845 768.418 324.845 767.817 327.917C764.907 330.563 762.82 331.077 758.934 331.59C752.585 330.837 748.252 328.241 743.239 324.377C741.102 321.506 741.102 321.506 740.501 317.632C741.102 314.025 741.102 314.025 742.638 311.955C746.838 310.213 750.521 310.034 754.994 310.82Z" fill="black"/>
<path d="M24.9953 476.859C22.9028 466.63 27.0475 446.422 29.3814 437.597C52.0386 478.484 97.7019 562.525 99.0967 571.591C100.84 582.924 103.456 624.188 99.0967 626.222C94.7379 628.256 27.611 489.644 24.9953 476.859Z" fill="#9A71C2"/>
</svg>
