<svg width="127" height="11" viewBox="0 0 127 11" fill="none" xmlns="http://www.w3.org/2000/svg">
<path d="M4.59639 10.5574H0.900391V0.53335H4.59639V4.07535H10.0704V0.53335H13.7804V10.5574H10.0704V6.56735H4.59639V10.5574Z" fill="black"/>
<path d="M18.5898 10.5574H14.7538L19.7658 0.53335H24.0498L28.9218 10.5574H25.0998L24.3298 8.82135H19.3458L18.5898 10.5574ZM21.8378 2.78735L20.0458 6.76335H23.6298L21.8658 2.78735H21.8378Z" fill="black"/>
<path d="M40.8876 10.8373C39.3476 10.8373 38.5776 9.94135 37.9896 9.10135L37.4016 8.13535C36.9816 7.53335 36.3796 7.23935 35.6796 7.23935H33.6076V10.5574H29.9116V0.53335H38.3676C41.0556 0.53335 42.6096 1.69535 42.6096 3.71135C42.6096 5.22335 41.5316 6.27335 39.6976 6.62335V6.63735C40.0336 6.74935 40.3416 7.04335 40.5796 7.39335L41.2656 8.42935C41.4616 8.70935 41.7136 8.87735 42.1196 8.87735C42.3576 8.87735 42.6936 8.76535 42.8616 8.56935L43.4496 10.0534C42.9036 10.5154 41.7976 10.8373 40.8876 10.8373ZM33.6076 2.70335V5.18135H37.2336C38.2836 5.18135 38.8996 4.71935 38.8996 3.93535C38.8996 3.16535 38.2836 2.70335 37.2476 2.70335H33.6076Z" fill="black"/>
<path d="M47.91 10.5574H44.424V0.53335H49.184L52.67 7.29535H52.698L56.128 0.53335H60.958V10.5574H57.472V4.29935H57.444L54.308 10.5574H51.186L47.938 4.31335H47.91V10.5574Z" fill="black"/>
<path d="M69.7535 10.9074C65.3295 10.9074 62.3895 8.76535 62.3895 5.54535C62.3895 2.31135 65.3295 0.18335 69.7535 0.18335C74.1775 0.18335 77.1175 2.31135 77.1175 5.54535C77.1175 8.76535 74.1775 10.9074 69.7535 10.9074ZM69.7535 8.31735C71.9515 8.31735 73.4075 7.21135 73.4075 5.54535C73.4075 3.87935 71.9515 2.77335 69.7535 2.77335C67.5555 2.77335 66.0855 3.87935 66.0855 5.54535C66.0855 7.21135 67.5555 8.31735 69.7535 8.31735Z" fill="black"/>
<path d="M82.0344 10.5574H78.5484V0.53335H82.9864L88.3624 7.04335H88.3764V0.53335H91.8624V10.5574H87.4244L82.0484 3.96335H82.0344V10.5574Z" fill="black"/>
<path d="M97.2214 10.5574H93.5394V0.53335H97.2214V10.5574Z" fill="black"/>
<path d="M105.975 10.7954C101.495 10.7954 98.6533 8.86335 98.6533 5.54535C98.6533 2.32535 101.327 0.28135 105.555 0.28135C108.775 0.28135 111.253 1.68135 111.925 3.89335L108.565 4.57935C108.215 3.54335 107.081 2.88535 105.653 2.88535C103.637 2.88535 102.349 3.90735 102.349 5.54535C102.363 7.16935 103.805 8.20535 106.073 8.20535C107.865 8.20535 109.195 7.42135 109.475 6.17535L112.891 6.77735C112.359 9.24135 109.685 10.7954 105.975 10.7954Z" fill="black"/>
<path d="M116.458 10.5574H112.622L117.634 0.53335H121.918L126.79 10.5574H122.968L122.198 8.82135H117.214L116.458 10.5574ZM119.706 2.78735L117.914 6.76335H121.498L119.734 2.78735H119.706Z" fill="black"/>
</svg>
